<svg width="248" height="171" viewBox="0 0 248 171" fill="none" xmlns="http://www.w3.org/2000/svg">
<path d="M77.8186 44.5613C75.1641 43.0918 71.8787 43.1224 69.2554 44.6416L1.57245 84.245C-0.512817 85.4532 -0.534912 90.3663 1.57245 91.5395L136.202 169.127C139.621 171.03 146.711 171.034 150.129 169.127L220.863 129.051C222.992 127.863 222.986 124.93 220.853 123.749L77.8186 44.5613Z" fill="#002D29" fill-opacity="0.6"/>
<path d="M98.4491 1.516C95.5848 -0.275506 91.938 -0.228559 89.1203 1.63516L12.1826 49.7619C10.8562 52.4145 11.5194 58.3827 18.1514 61.6984L158.086 142.601C161.559 144.587 165.824 144.585 169.294 142.595L241.649 101.487C244.965 98.8341 246.292 95.5184 244.966 92.8659L98.4491 1.516Z" fill="url(#paint0_linear_77_466)"/>
<path d="M98.3372 1.37486C95.5282 -0.334222 91.9917 -0.297274 89.2195 1.4707L12.9271 48.4356C10.8397 49.7673 10.7927 54.5891 12.9271 55.8441L157.845 141.045C161.355 143.109 165.705 143.119 169.226 141.073L243.64 98.8341C247.619 96.1815 247.777 88.8677 245.629 87.5607L98.3372 1.37486Z" fill="url(#paint1_linear_77_466)"/>
<path d="M98.2032 1.21154C95.4631 -0.402206 92.0564 -0.377065 89.3407 1.2776L14.1732 47.1092C10.8572 49.0236 10.8572 52.7697 14.8364 55.0669L157.715 139.368C161.222 141.43 165.569 141.443 169.088 139.402L244.966 95.5183C247.619 94.192 247.815 88.1848 245.63 86.8975L98.2032 1.21154Z" fill="url(#paint2_linear_77_466)"/>
<path d="M98.1801 1.16751C95.449 -0.419575 92.0686 -0.386579 89.3694 1.25429L14.3141 46.8839C12.1686 48.1888 12.1964 51.3118 14.3646 52.5788L158.36 136.725C161.878 138.781 166.232 138.778 169.748 136.718L245.358 92.4202C247.549 91.1367 247.543 87.9686 245.348 86.6929L98.1801 1.16751Z" fill="url(#paint3_linear_77_466)"/>
<path d="M203.848 121.421V119.299L212.469 114.313V116.527L203.848 121.421Z" fill="#002C27"/>
<path d="M189.257 129.702V127.737L187.931 128.504V130.455L189.257 129.702Z" fill="#002C27"/>
<path d="M185.278 131.961V130.038L183.952 130.805V132.714L185.278 131.961Z" fill="#002C27"/>
<path d="M182.625 133.467V131.573L181.299 132.34V134.219L182.625 133.467Z" fill="#002C27"/>
<path d="M226.396 108.622V106.258L227.723 105.491V107.869L226.396 108.622Z" fill="#002C27"/>
<path d="M229.712 106.739V104.34L231.039 103.573V105.987L229.712 106.739Z" fill="#002C27"/>
<path d="M232.365 105.234V102.806L233.691 102.039V104.481L232.365 105.234Z" fill="#002C27"/>
<ellipse cx="1.98959" cy="1.98941" rx="1.98959" ry="1.98941" transform="matrix(-1 0 0 1 27.437 49.0986)" fill="#E7C37C"/>
<ellipse cx="1.98959" cy="1.98941" rx="1.98959" ry="1.98941" transform="matrix(-1 0 0 1 31.4165 51.7512)" fill="#E7C37C" fill-opacity="0.6"/>
<ellipse cx="1.98959" cy="1.98941" rx="1.98959" ry="1.98941" transform="matrix(-1 0 0 1 35.3955 54.4037)" fill="#E7C37C" fill-opacity="0.2"/>
<defs>
<linearGradient id="paint0_linear_77_466" x1="93.0935" y1="0.0265457" x2="161.393" y2="144.595" gradientUnits="userSpaceOnUse">
<stop stop-color="#005D53"/>
<stop offset="0.951923" stop-color="#00524B"/>
</linearGradient>
<linearGradient id="paint1_linear_77_466" x1="164.719" y1="143.264" x2="10.2011" y2="52.4023" gradientUnits="userSpaceOnUse">
<stop stop-color="#3BBFB1"/>
<stop offset="1" stop-color="#005B51"/>
</linearGradient>
<linearGradient id="paint2_linear_77_466" x1="164.719" y1="140.612" x2="94.4302" y2="0.0213762" gradientUnits="userSpaceOnUse">
<stop stop-color="#00534A"/>
<stop offset="1" stop-color="#0A7166"/>
</linearGradient>
<linearGradient id="paint3_linear_77_466" x1="244.966" y1="88.887" x2="12.8478" y2="51.0815" gradientUnits="userSpaceOnUse">
<stop stop-color="#30B3A5"/>
<stop offset="1" stop-color="#003F38"/>
</linearGradient>
</defs>
</svg>
