<svg width="63" height="41" viewBox="0 0 63 41" fill="none" xmlns="http://www.w3.org/2000/svg">
<path d="M53.0577 24.9818C52.383 24.5452 51.5115 24.5576 50.8492 25.0129L42.5567 30.713C41.407 31.5035 41.4069 33.202 42.5567 33.9924L50.8492 39.6926C51.5115 40.1477 52.3831 40.1601 53.0577 39.7236L61.8671 34.0222C63.0788 33.2383 63.0788 31.4658 61.8671 30.6819L53.0577 24.9818ZM11.2478 0.286353C10.5792 -0.117248 9.73604 -0.0925103 9.09241 0.349817L0.862026 6.00721C-0.322208 6.82151 -0.278034 8.58475 0.944923 9.33974L27.6801 25.8444C28.3337 26.2479 29.1621 26.2396 29.807 25.8223L38.5956 20.1365C39.8299 19.3379 39.8011 17.5222 38.5425 16.7625L11.2478 0.286353Z" fill="#44E9D8"/>
</svg>
