<svg width="79" height="80" viewBox="0 0 79 80" fill="none" xmlns="http://www.w3.org/2000/svg">
<path d="M46.9528 36.2963C46.9528 40.3873 43.6161 43.7037 39.5 43.7037C35.3839 43.7037 32.0472 40.3873 32.0472 36.2963C32.0472 32.2053 35.3839 28.8889 39.5 28.8889C43.6161 28.8889 46.9528 32.2053 46.9528 36.2963Z" fill="currentColor"/>
<path d="M46.9528 72.5926C46.9528 76.6836 43.6161 80 39.5 80C35.3839 80 32.0472 76.6836 32.0472 72.5926C32.0472 68.5016 35.3839 65.1852 39.5 65.1852C43.6161 65.1852 46.9528 68.5016 46.9528 72.5926Z" fill="currentColor"/>
<path d="M23.1038 59.2593C23.1038 63.3503 19.767 66.6667 15.6509 66.6667C11.5349 66.6667 8.19811 63.3503 8.19811 59.2593C8.19811 55.1683 11.5349 51.8519 15.6509 51.8519C19.767 51.8519 23.1038 55.1683 23.1038 59.2593Z" fill="currentColor"/>
<path d="M70.8019 59.2593C70.8019 63.3503 67.4651 66.6667 63.3491 66.6667C59.233 66.6667 55.8962 63.3503 55.8962 59.2593C55.8962 55.1683 59.233 51.8519 63.3491 51.8519C67.4651 51.8519 70.8019 55.1683 70.8019 59.2593Z" fill="currentColor"/>
<path d="M22.3585 52.2222L32.4198 42.2222L34.283 44.0741L24.2217 54.0741L22.3585 52.2222Z" fill="currentColor"/>
<path d="M56.6415 52.2222L46.5802 42.2222L44.717 44.0741L54.7783 54.0741L56.6415 52.2222Z" fill="currentColor"/>
<path d="M32.0472 66.564L24.4588 62.2222L23.1038 64.5469L30.692 68.8889L32.0472 66.564Z" fill="currentColor"/>
<path d="M46.9528 66.564L54.5412 62.2222L55.8962 64.5469L48.308 68.8889L46.9528 66.564Z" fill="currentColor"/>
<path d="M38.0094 0H40.2453V22.963H38.0094V0Z" fill="currentColor"/>
<path d="M0 40H23.1038V42.2222H0V40Z" fill="currentColor"/>
<path d="M5.58962 20L25.5981 31.4815L24.4802 33.406L4.4717 21.9245L5.58962 20Z" fill="currentColor"/>
<path d="M20.5684 5.18519L32.1203 25.0717L30.184 26.1828L18.6321 6.2963L20.5684 5.18519Z" fill="currentColor"/>
<path d="M57.7594 5.18519L46.2075 25.0717L48.1438 26.1828L59.6957 6.2963L57.7594 5.18519Z" fill="currentColor"/>
<path d="M72.9235 20L52.915 31.4815L54.0329 33.406L74.0414 21.9245L72.9235 20Z" fill="currentColor"/>
<path d="M55.8962 40H79V42.2222H55.8962V40Z" fill="currentColor"/>
</svg>
