<svg width="83" height="80" viewBox="0 0 83 80" fill="none" xmlns="http://www.w3.org/2000/svg">
<path d="M15.2167 0H67.7833V8.96552H15.2167V0Z" fill="currentColor"/>
<path d="M0 17.931H53.2583L44.2667 26.8966H0V17.931Z" fill="currentColor"/>
<path d="M58.1 17.931H83V26.8966H67.0917L58.1 17.931Z" fill="currentColor"/>
<path d="M83 35.1724V44.1379H69.1667L58.1 33.1034H54.6417L38.7333 48.9655H14.8708L10.0292 44.1379H0V35.1724H13.4875L25.2458 46.8966H28.0125L39.7708 35.1724L43.9208 31.0345H68.1292L72.2792 35.1724H83Z" fill="currentColor"/>
<path d="M83 53.1034V62.069H29.05L38.0417 53.1034H83Z" fill="currentColor"/>
<path d="M0 62.069V53.1034H15.2167L24.2083 62.069H0Z" fill="currentColor"/>
<path d="M15.2167 71.0345H67.7833V80H15.2167V71.0345Z" fill="currentColor"/>
</svg>
