<svg width="80" height="80" viewBox="0 0 80 80" fill="none" xmlns="http://www.w3.org/2000/svg">
<rect x="69.2307" y="69.2308" width="10.7692" height="10.7692" fill="currentColor"/>
<rect x="55.8975" y="70.7692" width="8.71795" height="8.71795" fill="currentColor"/>
<rect x="55.3846" y="56.9231" width="9.23077" height="9.23077" fill="currentColor"/>
<rect x="69.7435" y="56.4103" width="8.71795" height="8.71795" fill="currentColor"/>
<rect x="44.1025" y="58.9744" width="6.15384" height="6.15385" fill="currentColor"/>
<rect x="33.3334" y="54.8718" width="5.64103" height="5.64103" fill="currentColor"/>
<rect x="14.8718" y="60.5128" width="5.12821" height="5.12821" fill="currentColor"/>
<rect x="1.53845" y="49.2308" width="5.64103" height="5.64103" fill="currentColor"/>
<rect y="31.7949" width="4.10256" height="4.10256" fill="currentColor"/>
<rect x="16.4103" y="23.0769" width="6.66667" height="6.66667" fill="currentColor"/>
<rect x="11.2821" y="9.23077" width="5.12821" height="5.12821" fill="currentColor"/>
<rect x="26.6666" y="6.15387" width="7.17949" height="7.17949" fill="currentColor"/>
<rect x="47.6923" width="9.23077" height="9.23077" fill="currentColor"/>
<rect x="38.9744" y="24.1025" width="7.69231" height="7.69231" fill="currentColor"/>
<rect x="50.2565" y="14.8718" width="5.64103" height="5.64103" fill="currentColor"/>
<rect x="69.2307" y="14.8718" width="9.74359" height="9.74359" fill="currentColor"/>
<rect x="55.3846" y="29.2308" width="9.23077" height="9.23077" fill="currentColor"/>
<rect x="69.7435" y="29.7436" width="8.20513" height="8.20513" fill="currentColor"/>
<rect x="69.2307" y="43.0769" width="8.71795" height="8.71795" fill="currentColor"/>
<rect x="56.4103" y="43.5897" width="7.69231" height="7.69231" fill="currentColor"/>
<rect x="42.0513" y="43.5897" width="8.71795" height="8.71795" fill="currentColor"/>
<rect x="42.0513" y="70.7692" width="9.23077" height="9.23077" fill="currentColor"/>
<rect x="27.6923" y="71.282" width="8.71795" height="8.71795" fill="currentColor"/>
<rect x="14.8718" y="60.5128" width="5.12821" height="5.12821" fill="currentColor"/>
<rect x="20.5128" y="40.5128" width="8.20513" height="8.20513" fill="currentColor"/>
</svg>
