<svg width="87" height="80" viewBox="0 0 87 80" fill="none" xmlns="http://www.w3.org/2000/svg">
<path d="M87 20.5599L86.6887 20.6437V21.7268L87 20.5599Z" fill="currentColor"/>
<path fill-rule="evenodd" clip-rule="evenodd" d="M86.6887 0H72.5863V31.5855L77.1488 27.5003L73.4546 24.2059L86.6887 20.6437V0ZM72.5863 36.6667V80H86.6887V21.7268L83.3705 34.167L79.6372 30.4167L72.5863 36.6667Z" fill="currentColor"/>
<path d="M62.6316 40.4985V45.4905L72.5863 36.6667V31.5855L62.6316 40.4985Z" fill="currentColor"/>
<path fill-rule="evenodd" clip-rule="evenodd" d="M62.6316 15H48.5291V44.5836H58.069L62.6316 40.4985V15ZM48.5291 48.3333V80H62.6316V45.4905L59.4245 48.3333H48.5291Z" fill="currentColor"/>
<path d="M39.404 49.3617L41.0631 48.3333H48.5291V44.5836H39.404V49.3617Z" fill="currentColor"/>
<path fill-rule="evenodd" clip-rule="evenodd" d="M39.404 26.6667H25.3015V53.0676L38.9892 44.5836H39.404V26.6667ZM25.3015 58.1028V80H39.404V49.3617L25.3015 58.1028Z" fill="currentColor"/>
<path d="M15.3468 59.2377V64.2731L25.3015 58.1028V53.0676L15.3468 59.2377Z" fill="currentColor"/>
<path fill-rule="evenodd" clip-rule="evenodd" d="M15.3468 42.5H1.24434V67.9787L15.3468 59.2377V42.5ZM1.24434 71V80H15.3468V64.2731L2.07389 72.5L1.24434 71Z" fill="currentColor"/>
<path d="M1.24434 67.9787L0 68.75L1.24434 71V67.9787Z" fill="currentColor"/>
</svg>
