<svg width="84" height="80" viewBox="0 0 84 80" fill="none" xmlns="http://www.w3.org/2000/svg">
<path d="M39.1749 79.2381C54.1906 79.2381 67.2267 70.6929 73.7994 58.1667C74.1072 57.5801 74.401 56.9847 74.6802 56.381H66.1339C60.5593 65.5308 50.5675 71.619 39.1749 71.619C35.5062 71.619 31.9846 70.9885 28.7093 69.8282L30.1345 68.2388L15.0673 65.5238L19.5874 80L23.3071 75.8522C28.1582 78.0283 33.528 79.2381 39.1749 79.2381Z" fill="currentColor"/>
<path d="M0 39.619C0 48.3318 2.78519 56.3978 7.50347 62.9412L13.205 57.9048C9.62967 52.7222 7.53363 46.4235 7.53363 39.619C7.53363 28.7352 12.9083 19.116 21.1214 13.3344L22.6009 17.5238L31.7663 5.71429L16.9507 1.52381L18.5145 5.95221C7.39997 12.9427 0 25.4043 0 39.619Z" fill="currentColor"/>
<path d="M39.1749 0C38.6176 0 38.0628 0.0115982 37.5107 0.0349702C36.8051 0.0648463 36.104 0.113621 35.4081 0.180831L39.1749 7.61905C56.0074 7.61905 69.7701 20.9119 70.7592 37.684L67.8027 36.5714L72.6996 51.0476L84 42.6667L78.3395 40.5365C78.3463 40.2315 78.3498 39.9257 78.3498 39.619C78.3498 17.7381 60.8106 0 39.1749 0Z" fill="currentColor"/>
</svg>
