<svg width="80" height="80" viewBox="0 0 80 80" fill="none" xmlns="http://www.w3.org/2000/svg">
<path d="M80 40C80 17.9086 62.0746 0 39.9624 0C39.0553 0 38.1553 0.0301366 37.2632 0.0894621L40.1873 6.74157C58.6969 6.74157 73.702 21.7325 73.702 40.2247C73.702 50.4981 69.0709 59.6908 61.7806 65.8328L65.7945 70.5618C74.4829 63.2244 80 52.2559 80 40Z" fill="currentColor"/>
<path d="M40.1873 73.7079C44.8739 73.7079 49.3358 72.7468 53.3863 71.0112L56.8322 76.2865C51.7054 78.6695 45.9894 80 39.9624 80C20.6243 80 4.4884 66.303 0.744065 48.0899H7.60253C11.144 62.7873 24.3892 73.7079 40.1873 73.7079Z" fill="currentColor"/>
<path d="M6.74699 37.9775L0 37.5281C1.04341 20.43 12.8378 6.23351 28.7159 1.59965L31.8649 7.78203C18.0814 11.3007 7.71683 23.356 6.74699 37.9775Z" fill="currentColor"/>
<path d="M13.0337 40.2247C13.0337 55.2419 25.2075 67.4157 40.2247 67.4157C43.8737 67.4157 47.3548 66.697 50.5342 65.3933L46.5169 60.1812C44.5278 60.7938 42.4148 61.1236 40.2247 61.1236C28.4344 61.1236 18.8764 51.5656 18.8764 39.7753C18.8764 29.1319 26.6652 20.3077 36.8539 18.6916L34.1573 13.7132C22.0609 16.4701 13.0337 27.2932 13.0337 40.2247Z" fill="currentColor"/>
<path d="M67.4157 40.2247C67.4157 25.8878 56.3199 14.1425 42.2472 13.1078L44.7191 18.9009C54.3513 20.9648 61.573 29.5267 61.573 39.7753C61.573 46.134 58.793 51.8434 54.382 55.7544L58.427 60.4248C63.9463 55.4481 67.4157 48.2416 67.4157 40.2247Z" fill="currentColor"/>
</svg>
