<svg width="131" height="97" viewBox="0 0 131 97" fill="none" xmlns="http://www.w3.org/2000/svg">
<path d="M6.9635 0.642953C5.8171 -0.0177811 4.63594 -0.215697 3.65659 0.268643C2.67338 0.754899 2.12894 1.81119 1.99471 3.13102L0.00511169 20.3726L-7.62939e-05 20.4102V20.4477C-7.62939e-05 21.7245 -0.0089407 22.738 0.288788 23.5588C0.614599 24.4566 1.26757 25.0565 2.32112 25.6648L123.023 95.2942L123.041 95.3033L123.058 95.3124C124.458 96.0124 125.849 96.2732 127.028 95.7372C128.22 95.1953 128.96 93.9496 129.31 92.1974L129.318 92.1586L129.322 92.1197L130.647 75.5413L130.65 75.5154V75.4882C130.65 74.5394 130.661 73.7215 130.348 72.9897C130.021 72.2257 129.386 71.6381 128.365 70.9576L128.347 70.9459L128.33 70.9356L6.9635 0.642953ZM4.24465 1.45763C4.6737 1.24544 5.36295 1.25079 6.30161 1.79179L6.30289 1.79049L127.646 72.0715C128.602 72.7108 128.959 73.1176 129.128 73.5117C129.31 73.9375 129.323 74.4418 129.323 75.4687L128.004 91.9682C127.689 93.51 127.106 94.245 126.479 94.5301C125.836 94.8223 124.907 94.752 123.658 94.1286L2.98432 24.5159C2.04856 23.9757 1.70774 23.5795 1.53616 23.1068C1.33857 22.5622 1.32782 21.8379 1.32762 20.4879L3.31203 3.28255L3.31332 3.27219C3.42053 2.20231 3.82189 1.66674 4.24465 1.45763Z" fill="#46E8D7"/>
</svg>
