<svg width="648" height="632" viewBox="0 0 648 632" fill="none" xmlns="http://www.w3.org/2000/svg">
<path d="M234.197 297.837C232.388 296.832 230.189 296.836 228.384 297.846L1.82281 423.082C-0.419434 424.337 -0.683838 429.238 1.53882 430.527L344.033 629.981C348.353 632.486 353.64 631.823 357.96 629.318L582.784 499.343C585.437 498.017 585.437 490.722 582.784 490.722L234.197 297.837Z" fill="#002D29" fill-opacity="0.6"/>
<path fill-rule="evenodd" clip-rule="evenodd" d="M288.988 6.10036C287.661 6.95397 286.402 9.69992 286.335 10.2697L257.817 252.978C257.473 255.876 258.889 258.7 261.417 260.158L604.67 457.225C605.996 457.888 607.322 457.888 608.649 457.225C609.975 456.562 618.597 454.572 620.144 447.064L647.07 203.499C647.388 200.619 645.972 197.824 643.461 196.377L303.771 0.641153C300.262 -1.38431 295.905 1.6489 288.988 6.10036Z" fill="url(#paint0_linear_77_465)"/>
<path d="M299.599 4.64193C295.059 2.01438 288.943 4.05822 288.324 9.28391L261.796 253.319C261.452 256.231 258.52 258.433 261.049 259.898L600.027 452.923C604.589 455.566 612.712 454.865 613.291 449.608L642.471 207.562C642.79 204.668 640.341 201.059 637.829 199.605L299.599 4.64193Z" fill="url(#paint1_linear_77_465)"/>
<path d="M297.139 5.43097C292.602 2.81686 286.87 5.69124 286.252 10.8902L257.448 253.2C257.104 256.097 258.52 258.921 261.048 260.379L602.616 457.371C607.175 460 612.934 457.084 613.513 451.854L640.438 208.289C640.756 205.409 639.34 202.613 636.829 201.167L297.139 5.43097Z" fill="url(#paint2_linear_77_465)"/>
<path d="M387.472 148.632C386.326 147.971 385.145 147.773 384.165 148.258C383.182 148.744 382.638 149.8 382.503 151.12L380.514 168.362L380.509 168.399V168.437C380.509 169.713 380.5 170.727 380.798 171.548C381.123 172.446 381.776 173.045 382.83 173.654L503.532 243.283L503.55 243.292L503.567 243.301C504.967 244.001 506.358 244.262 507.537 243.726C508.729 243.184 509.469 241.939 509.819 240.186L509.827 240.148L509.831 240.109L511.156 223.53L511.159 223.504V223.477C511.159 222.528 511.17 221.71 510.857 220.979C510.529 220.215 509.895 219.627 508.874 218.947L508.856 218.935L508.839 218.925L387.474 148.632H387.472ZM384.753 149.447C385.182 149.234 385.872 149.24 386.81 149.781L386.812 149.779L508.155 220.06C509.111 220.7 509.468 221.107 509.637 221.501C509.819 221.926 509.832 222.431 509.832 223.458L508.512 239.957C508.198 241.499 507.615 242.234 506.988 242.519C506.344 242.811 505.416 242.741 504.167 242.118L383.493 172.505C382.557 171.965 382.217 171.568 382.045 171.096C381.847 170.551 381.837 169.827 381.836 168.477L383.821 151.272L383.822 151.261C383.929 150.191 384.331 149.656 384.753 149.447Z" fill="#46E8D7"/>
<path d="M379.514 220.141C378.368 219.48 377.187 219.282 376.207 219.767C375.224 220.253 374.68 221.309 374.545 222.629L372.556 239.871L372.551 239.908V239.946C372.551 241.223 372.542 242.236 372.84 243.057C373.165 243.955 373.818 244.555 374.872 245.163L495.574 314.792L495.592 314.801L495.609 314.81C497.009 315.51 498.4 315.771 499.579 315.235C500.771 314.693 501.511 313.448 501.861 311.696L501.869 311.657L501.873 311.618L503.198 295.039L503.201 295.013V294.986C503.201 294.038 503.212 293.22 502.899 292.488C502.571 291.724 501.937 291.136 500.916 290.456L500.898 290.444L500.881 290.434L379.514 220.141Z" fill="#43E7E0"/>
<path d="M256.834 262.077C254.981 261.006 252.696 261.01 250.846 262.086L22.6629 394.859C19.0659 395.23 20.4645 399.304 22.6564 400.586L363.543 599.955C367.879 602.491 373.245 602.495 377.585 599.967L600.027 471.491C603.343 469.502 605.996 462.87 603.343 459.555L256.834 262.077Z" fill="url(#paint3_linear_77_465)"/>
<path d="M254.093 266.006C252.284 265.002 250.085 265.005 248.28 266.015L21.7188 391.251C19.4766 392.506 19.2122 397.407 21.4348 398.696L363.929 598.15C368.249 600.655 373.536 599.992 377.856 597.487L602.68 467.512C605.333 466.186 605.333 458.891 602.68 458.891L254.093 266.006Z" fill="url(#paint4_linear_77_465)"/>
<path d="M256.151 258.262C254.298 257.192 252.013 257.195 250.163 258.272L21.9805 391.044C19.7858 392.321 19.7822 395.49 21.9741 396.772L138.399 464.864L597.089 455.26L256.151 258.262Z" fill="url(#paint5_linear_77_465)"/>
<path d="M138.442 464.86L362.86 596.14C367.196 598.676 372.562 598.681 376.902 596.153L603.023 464.419C605.223 463.137 605.217 459.956 603.012 458.682L595.033 454.073L594.873 453.979L138.442 464.86Z" fill="url(#paint6_linear_77_465)"/>
<path d="M410.535 488.788C411.196 488.269 412.113 488.221 412.825 488.669L428.347 498.443C429.511 499.176 429.598 500.84 428.516 501.69L421.446 507.245C420.785 507.764 419.868 507.812 419.156 507.364L403.635 497.59C402.471 496.858 402.383 495.193 403.465 494.343L410.535 488.788Z" fill="#2DAC9F"/>
<path d="M436.621 498.088C435.988 498.523 435.161 498.555 434.497 498.171L367.909 459.623L392.396 459.022L444.673 489.098C445.941 489.828 446.014 491.632 444.807 492.462L436.621 498.088Z" fill="#2DAC9F"/>
<path d="M385.333 473.536C385.995 473.017 386.912 472.969 387.623 473.417L403.145 483.191C404.309 483.923 404.396 485.588 403.315 486.438L396.245 491.993C395.584 492.512 394.666 492.56 393.955 492.112L378.433 482.338C377.269 481.605 377.182 479.941 378.264 479.091L385.333 473.536Z" fill="#2DAC9F"/>
<path d="M452.54 488.803C451.906 489.238 451.077 489.27 450.412 488.883L399.079 459.022L423.617 458.415L460.597 479.813C461.862 480.545 461.933 482.346 460.728 483.174L452.54 488.803Z" fill="#2DAC9F"/>
<path d="M469.783 479.519C469.149 479.955 468.32 479.986 467.655 479.599L430.912 458.225L455.17 457.411L477.84 470.529C479.106 471.261 479.176 473.062 477.971 473.89L469.783 479.519Z" fill="#2DAC9F"/>
<path d="M371.015 478.089C370.374 478.592 369.491 478.653 368.787 478.244L338.065 460.414L361.198 459.623L377.824 469.272C379.041 469.978 379.16 471.688 378.055 472.557L371.015 478.089Z" fill="#2DAC9F"/>
<path d="M485.037 469.572C484.403 470.007 483.574 470.039 482.909 469.652L461.867 457.411L486.621 456.836L493.094 460.582C494.359 461.314 494.429 463.115 493.225 463.943L485.037 469.572Z" fill="#2DAC9F"/>
<path d="M502.389 460.136C501.704 460.674 500.749 460.704 500.032 460.211L494.252 456.239H507.35L502.389 460.136Z" fill="#2DAC9F"/>
<path d="M471.221 427.73C470.503 427.237 469.548 427.268 468.863 427.806L461.764 433.383C460.709 434.212 460.76 435.827 461.866 436.587L470.187 442.307C470.904 442.8 471.86 442.769 472.544 442.231L479.644 436.654C480.699 435.825 480.647 434.21 479.542 433.45L471.221 427.73ZM454.641 418.447C453.923 417.953 452.968 417.984 452.283 418.522L445.184 424.099C444.129 424.928 444.18 426.543 445.286 427.303L453.607 433.023C454.324 433.516 455.28 433.485 455.965 432.948L463.064 427.37C464.119 426.541 464.067 424.926 462.962 424.166L454.641 418.447ZM438.061 408.499C437.343 408.006 436.388 408.037 435.703 408.575L428.604 414.152C427.549 414.981 427.6 416.596 428.706 417.356L437.027 423.076C437.744 423.569 438.7 423.538 439.385 423L446.484 417.423C447.539 416.594 447.488 414.979 446.382 414.219L438.061 408.499ZM260.289 400.472C259.577 400.024 258.66 400.072 257.999 400.591L250.929 406.146C249.847 406.996 249.935 408.66 251.099 409.393L266.62 419.167C267.332 419.615 268.249 419.567 268.91 419.048L275.98 413.492C277.062 412.642 276.975 410.978 275.811 410.245L260.289 400.472ZM422.144 398.552C421.427 398.059 420.471 398.09 419.787 398.628L412.687 404.205C411.632 405.034 411.684 406.649 412.789 407.409L421.11 413.128C421.828 413.622 422.783 413.591 423.468 413.053L430.567 407.476C431.622 406.647 431.571 405.032 430.465 404.272L422.144 398.552ZM235.087 385.883C234.376 385.435 233.458 385.483 232.797 386.002L225.727 391.557C224.646 392.407 224.733 394.071 225.897 394.804L241.419 404.578C242.13 405.026 243.048 404.978 243.709 404.458L250.779 398.903C251.86 398.053 251.773 396.389 250.609 395.656L235.087 385.883ZM384.342 377.995C383.624 377.502 382.669 377.532 381.984 378.07L374.885 383.647C373.83 384.476 373.881 386.091 374.987 386.852L383.308 392.571C384.025 393.064 384.981 393.034 385.666 392.496L392.765 386.919C393.82 386.09 393.769 384.475 392.663 383.715L384.342 377.995ZM217.879 375.343C217.162 374.849 216.206 374.88 215.522 375.418L208.422 380.995C207.367 381.824 207.419 383.439 208.525 384.199L216.846 389.919C217.563 390.412 218.517 390.381 219.202 389.844L226.303 384.266C227.358 383.437 227.306 381.822 226.2 381.062L217.879 375.343ZM367.762 368.048C367.045 367.555 366.089 367.585 365.404 368.123L358.305 373.7C357.25 374.529 357.301 376.144 358.407 376.905L366.728 382.624C367.446 383.117 368.401 383.087 369.086 382.549L376.185 376.972C377.24 376.143 377.189 374.528 376.083 373.768L367.762 368.048ZM199.973 365.396C199.256 364.902 198.3 364.933 197.615 365.471L190.516 371.048C189.461 371.877 189.512 373.492 190.618 374.252L198.939 379.972C199.656 380.465 200.611 380.434 201.295 379.896L208.396 374.319C209.451 373.49 209.4 371.875 208.294 371.115L199.973 365.396ZM351.845 358.101C351.128 357.608 350.172 357.638 349.488 358.176L342.388 363.753C341.333 364.582 341.385 366.197 342.49 366.958L350.811 372.677C351.529 373.17 352.484 373.14 353.169 372.602L360.268 367.025C361.323 366.196 361.272 364.581 360.166 363.821L351.845 358.101ZM216.553 356.775C215.836 356.282 214.88 356.312 214.195 356.85L207.096 362.427C206.041 363.256 206.092 364.871 207.198 365.631L215.519 371.351C216.236 371.844 217.191 371.813 217.875 371.276L224.976 365.699C226.031 364.87 225.98 363.254 224.874 362.494L216.553 356.775ZM183.393 355.448C182.676 354.955 181.72 354.986 181.035 355.524L173.936 361.101C172.881 361.93 172.933 363.545 174.038 364.305L182.359 370.025C183.077 370.518 184.031 370.487 184.715 369.949L191.816 364.372C192.871 363.543 192.82 361.928 191.714 361.168L183.393 355.448ZM335.928 348.154C335.211 347.661 334.255 347.691 333.571 348.229L326.471 353.806C325.416 354.635 325.468 356.25 326.574 357.01L334.895 362.73C335.612 363.223 336.566 363.192 337.251 362.655L344.352 357.078C345.407 356.249 345.355 354.634 344.249 353.873L335.928 348.154ZM199.973 346.828C199.256 346.335 198.3 346.365 197.615 346.903L190.516 352.48C189.461 353.309 189.512 354.924 190.618 355.684L198.939 361.404C199.656 361.897 200.611 361.866 201.295 361.329L208.396 355.752C209.451 354.922 209.4 353.307 208.294 352.547L199.973 346.828ZM297.463 326.934C296.746 326.44 295.79 326.471 295.105 327.009L288.006 332.586C286.951 333.415 287.003 335.03 288.108 335.79L296.429 341.51C297.147 342.003 298.101 341.972 298.785 341.434L305.886 335.857C306.941 335.028 306.89 333.413 305.784 332.653L297.463 326.934ZM280.22 316.986C279.502 316.493 278.547 316.524 277.862 317.062L270.763 322.639C269.708 323.468 269.759 325.083 270.865 325.843L279.186 331.563C279.903 332.056 280.858 332.025 281.542 331.487L288.643 325.91C289.698 325.081 289.647 323.466 288.541 322.706L280.22 316.986ZM264.303 307.703C263.586 307.209 262.63 307.24 261.946 307.778L254.846 313.355C253.791 314.184 253.843 315.799 254.948 316.559L263.269 322.279C263.987 322.772 264.941 322.741 265.626 322.203L272.726 316.626C273.781 315.797 273.73 314.182 272.624 313.422L264.303 307.703Z" fill="#00554D"/>
<path d="M246.99 318.182C246.286 317.774 245.403 317.837 244.763 318.34L237.722 323.873C236.617 324.741 236.735 326.45 237.95 327.156L461.866 457.411L486.62 456.836L246.99 318.182Z" fill="#00554D"/>
<path d="M231.736 328.129C231.032 327.721 230.15 327.784 229.51 328.287L222.468 333.82C221.363 334.688 221.482 336.397 222.696 337.103L430.912 458.225L455.169 457.411L231.736 328.129Z" fill="#00554D"/>
<path d="M214.493 337.413C213.789 337.005 212.906 337.068 212.267 337.571L205.225 343.104C204.12 343.972 204.239 345.681 205.453 346.387L399.078 459.022L423.617 458.415L214.493 337.413Z" fill="#00554D"/>
<path d="M231.734 366.587C231.03 366.182 230.151 366.246 229.512 366.748L222.471 372.278C221.365 373.147 221.486 374.86 222.704 375.565L367.908 459.623L392.396 459.022L231.734 366.587Z" fill="#00554D"/>
<path d="M285.457 415.666C284.752 415.257 283.869 415.318 283.229 415.821L276.189 421.353C275.083 422.222 275.203 423.932 276.419 424.638L338.064 460.414L361.198 459.623L285.457 415.666Z" fill="#00554D"/>
<path d="M501.065 445.635C500.347 445.142 499.392 445.173 498.707 445.71L491.608 451.287C490.553 452.116 490.604 453.732 491.71 454.492L494.252 456.239H507.35L509.488 454.559C510.543 453.73 510.491 452.115 509.386 451.355L501.065 445.635Z" fill="#00554D"/>
<defs>
<linearGradient id="paint0_linear_77_465" x1="647.114" y1="204.421" x2="473.367" y2="325.938" gradientUnits="userSpaceOnUse">
<stop stop-color="#25A99B"/>
<stop offset="1" stop-color="#015D54"/>
</linearGradient>
<linearGradient id="paint1_linear_77_465" x1="640.725" y1="208.467" x2="504.486" y2="326.517" gradientUnits="userSpaceOnUse">
<stop stop-color="#48D9CA"/>
<stop offset="1" stop-color="#0B6D62"/>
</linearGradient>
<linearGradient id="paint2_linear_77_465" x1="640.482" y1="209.211" x2="257.155" y2="260.282" gradientUnits="userSpaceOnUse">
<stop stop-color="#1B8F82"/>
<stop offset="1" stop-color="#066359"/>
</linearGradient>
<linearGradient id="paint3_linear_77_465" x1="371.887" y1="602.129" x2="440.627" y2="442.171" gradientUnits="userSpaceOnUse">
<stop stop-color="#32B3A6"/>
<stop offset="1" stop-color="#1F9186"/>
</linearGradient>
<linearGradient id="paint4_linear_77_465" x1="19.7291" y1="391.914" x2="372.534" y2="599.504" gradientUnits="userSpaceOnUse">
<stop stop-color="#00544B"/>
<stop offset="1" stop-color="#024039"/>
</linearGradient>
<linearGradient id="paint5_linear_77_465" x1="596.711" y1="455.576" x2="19.7304" y2="393.23" gradientUnits="userSpaceOnUse">
<stop stop-color="#05655B"/>
<stop offset="1" stop-color="#003530"/>
</linearGradient>
<linearGradient id="paint6_linear_77_465" x1="604.669" y1="526.012" x2="136.208" y2="526.012" gradientUnits="userSpaceOnUse">
<stop stop-color="#2EB1A3"/>
<stop offset="1" stop-color="#01544C"/>
</linearGradient>
</defs>
</svg>
