<svg width="1250" height="732" viewBox="0 0 1250 732" fill="none" xmlns="http://www.w3.org/2000/svg">
<g filter="url(#filter0_d_316_29)">
<path d="M4.66667 345C4.66667 352.364 10.6362 358.333 18 358.333C25.3638 358.333 31.3333 352.364 31.3333 345C31.3333 337.636 25.3638 331.667 18 331.667C10.6362 331.667 4.66667 337.636 4.66667 345ZM144.5 345V347.5H145.536L146.268 346.768L144.5 345ZM222.5 267V264.5H221.464L220.732 265.232L222.5 267ZM440 267V269.5H441.036L441.768 268.768L440 267ZM522 185V182.5H520.964L520.232 183.232L522 185ZM751 185L752.768 183.232L752.036 182.5H751V185ZM804 238L802.232 239.768L802.964 240.5H804V238ZM833.667 238C833.667 245.364 839.636 251.333 847 251.333C854.364 251.333 860.333 245.364 860.333 238C860.333 230.636 854.364 224.667 847 224.667C839.636 224.667 833.667 230.636 833.667 238ZM907.167 238C907.167 245.364 913.136 251.333 920.5 251.333C927.864 251.333 933.833 245.364 933.833 238C933.833 230.636 927.864 224.667 920.5 224.667C913.136 224.667 907.167 230.636 907.167 238ZM1034.5 238L1036.27 236.232L1035.54 235.5H1034.5V238ZM1100.5 304L1098.73 305.768L1099.46 306.5H1100.5V304ZM1153.67 304C1153.67 311.364 1159.64 317.333 1167 317.333C1174.36 317.333 1180.33 311.364 1180.33 304C1180.33 296.636 1174.36 290.667 1167 290.667C1159.64 290.667 1153.67 296.636 1153.67 304ZM229.667 326C229.667 333.364 235.636 339.333 243 339.333C250.364 339.333 256.333 333.364 256.333 326C256.333 318.636 250.364 312.667 243 312.667C235.636 312.667 229.667 318.636 229.667 326ZM585.5 326V328.5H586.536L587.268 327.768L585.5 326ZM673.5 238V235.5H672.464L671.732 236.232L673.5 238ZM721.5 238L723.268 236.232L722.536 235.5H721.5V238ZM847 363.5L845.232 365.268L845.964 366H847V363.5ZM1120.67 363.5C1120.67 370.864 1126.64 376.833 1134 376.833C1141.36 376.833 1147.33 370.864 1147.33 363.5C1147.33 356.136 1141.36 350.167 1134 350.167C1126.64 350.167 1120.67 356.136 1120.67 363.5ZM4.66667 388.5C4.66667 395.864 10.6362 401.833 18 401.833C25.3638 401.833 31.3333 395.864 31.3333 388.5C31.3333 381.136 25.3638 375.167 18 375.167C10.6362 375.167 4.66667 381.136 4.66667 388.5ZM176.5 388.5L178.268 386.732L177.536 386H176.5V388.5ZM222.5 434.5L220.732 436.268L221.464 437H222.5V434.5ZM612.5 505.514L610.732 507.282L611.464 508.014H612.5V505.514ZM878 505.514V508.014H879.036L879.768 507.282L878 505.514ZM999.167 467.698C999.167 475.061 1005.14 481.031 1012.5 481.031C1019.86 481.031 1025.83 475.061 1025.83 467.698C1025.83 460.334 1019.86 454.364 1012.5 454.364C1005.14 454.364 999.167 460.334 999.167 467.698ZM1187.17 467.698C1187.17 475.061 1193.14 481.031 1200.5 481.031C1207.86 481.031 1213.83 475.061 1213.83 467.698C1213.83 460.334 1207.86 454.364 1200.5 454.364C1193.14 454.364 1187.17 460.334 1187.17 467.698ZM277.167 363.5C277.167 370.864 283.136 376.833 290.5 376.833C297.864 376.833 303.833 370.864 303.833 363.5C303.833 356.136 297.864 350.167 290.5 350.167C283.136 350.167 277.167 356.136 277.167 363.5ZM414 363.5L415.768 361.732L415.036 361H414V363.5ZM458 407.5L456.232 409.268L456.964 410H458V407.5ZM650 407.5L651.768 405.732L651.036 405H650V407.5ZM703 460.5L701.232 462.268L701.964 463H703V460.5ZM859.5 460.5V463H860.536L861.268 462.268L859.5 460.5ZM912.5 407.5V405H911.464L910.732 405.732L912.5 407.5ZM1087.17 407.5C1087.17 414.864 1093.14 420.833 1100.5 420.833C1107.86 420.833 1113.83 414.864 1113.83 407.5C1113.83 400.136 1107.86 394.167 1100.5 394.167C1093.14 394.167 1087.17 400.136 1087.17 407.5ZM902.483 467.698C902.483 475.061 908.453 481.031 915.816 481.031C923.18 481.031 929.15 475.061 929.15 467.698C929.15 460.334 923.18 454.364 915.816 454.364C908.453 454.364 902.483 460.334 902.483 467.698ZM541.486 434.5L543.254 432.732L542.521 432H541.486V434.5ZM4.66667 478.5C4.66667 485.864 10.6362 491.833 18 491.833C25.3638 491.833 31.3333 485.864 31.3333 478.5C31.3333 471.136 25.3638 465.167 18 465.167C10.6362 465.167 4.66667 471.136 4.66667 478.5ZM357.5 478.5L359.268 476.732L358.536 476H357.5V478.5ZM384.514 505.514L382.746 507.282L383.479 508.014H384.514V505.514ZM555 505.514L556.768 503.746L556.036 503.014H555V505.514ZM596.5 547.014L594.732 548.782L595.464 549.514H596.5V547.014ZM937 547.014V549.514H938.036L938.768 548.782L937 547.014ZM983 501.014V498.514H981.964L981.232 499.246L983 501.014ZM1218.67 501.014C1218.67 508.378 1224.64 514.347 1232 514.347C1239.36 514.347 1245.33 508.378 1245.33 501.014C1245.33 493.65 1239.36 487.681 1232 487.681C1224.64 487.681 1218.67 493.65 1218.67 501.014ZM18 345V347.5H144.5V345V342.5H18V345ZM144.5 345L146.268 346.768L224.268 268.768L222.5 267L220.732 265.232L142.732 343.232L144.5 345ZM222.5 267V269.5H440V267V264.5H222.5V267ZM440 267L441.768 268.768L523.768 186.768L522 185L520.232 183.232L438.232 265.232L440 267ZM522 185V187.5H751V185V182.5H522V185ZM751 185L749.232 186.768L802.232 239.768L804 238L805.768 236.232L752.768 183.232L751 185ZM804 238V240.5H847V238V235.5H804V238ZM920.5 238V240.5H1034.5V238V235.5H920.5V238ZM1034.5 238L1032.73 239.768L1098.73 305.768L1100.5 304L1102.27 302.232L1036.27 236.232L1034.5 238ZM1100.5 304V306.5H1167V304V301.5H1100.5V304ZM243 326V328.5H585.5V326V323.5H243V326ZM585.5 326L587.268 327.768L675.268 239.768L673.5 238L671.732 236.232L583.732 324.232L585.5 326ZM673.5 238V240.5H721.5V238V235.5H673.5V238ZM721.5 238L719.732 239.768L845.232 365.268L847 363.5L848.768 361.732L723.268 236.232L721.5 238ZM847 363.5V366H1134V363.5V361H847V363.5ZM18 388.5V391H176.5V388.5V386H18V388.5ZM176.5 388.5L174.732 390.268L220.732 436.268L222.5 434.5L224.268 432.732L178.268 386.732L176.5 388.5ZM612.5 505.514V508.014H878V505.514V503.014H612.5V505.514ZM1012.5 467.698V470.198H1200.5V467.698V465.198H1012.5V467.698ZM290.5 363.5V366H414V363.5V361H290.5V363.5ZM414 363.5L412.232 365.268L456.232 409.268L458 407.5L459.768 405.732L415.768 361.732L414 363.5ZM458 407.5V410H650V407.5V405H458V407.5ZM650 407.5L648.232 409.268L701.232 462.268L703 460.5L704.768 458.732L651.768 405.732L650 407.5ZM703 460.5V463H859.5V460.5V458H703V460.5ZM859.5 460.5L861.268 462.268L914.268 409.268L912.5 407.5L910.732 405.732L857.732 458.732L859.5 460.5ZM912.5 407.5V410H1100.5V407.5V405H912.5V407.5ZM878 505.514L879.768 507.282L917.584 469.465L915.816 467.698L914.049 465.93L876.232 503.746L878 505.514ZM612.5 505.514L614.268 503.746L543.254 432.732L541.486 434.5L539.718 436.268L610.732 507.282L612.5 505.514ZM541.486 434.5V432H222.5V434.5V437H541.486V434.5ZM18 478.5V481H357.5V478.5V476H18V478.5ZM357.5 478.5L355.732 480.268L382.746 507.282L384.514 505.514L386.282 503.746L359.268 476.732L357.5 478.5ZM384.514 505.514V508.014H555V505.514V503.014H384.514V505.514ZM555 505.514L553.232 507.282L594.732 548.782L596.5 547.014L598.268 545.246L556.768 503.746L555 505.514ZM596.5 547.014V549.514H937V547.014V544.514H596.5V547.014ZM937 547.014L938.768 548.782L984.768 502.782L983 501.014L981.232 499.246L935.232 545.246L937 547.014ZM983 501.014V503.514H1232V501.014V498.514H983V501.014Z" fill="url(#paint0_linear_316_29)"/>
</g>
<defs>
<filter id="filter0_d_316_29" x="0.666626" y="182.5" width="1248.67" height="375.014" filterUnits="userSpaceOnUse" color-interpolation-filters="sRGB">
<feFlood flood-opacity="0" result="BackgroundImageFix"/>
<feColorMatrix in="SourceAlpha" type="matrix" values="0 0 0 0 0 0 0 0 0 0 0 0 0 0 0 0 0 0 127 0" result="hardAlpha"/>
<feOffset dy="4"/>
<feGaussianBlur stdDeviation="2"/>
<feComposite in2="hardAlpha" operator="out"/>
<feColorMatrix type="matrix" values="0 0 0 0 0 0 0 0 0 0 0 0 0 0 0 0 0 0 0.25 0"/>
<feBlend mode="normal" in2="BackgroundImageFix" result="effect1_dropShadow_316_29"/>
<feBlend mode="normal" in="SourceGraphic" in2="effect1_dropShadow_316_29" result="shape"/>
</filter>
<linearGradient id="paint0_linear_316_29" x1="18" y1="366.007" x2="1232" y2="366.007" gradientUnits="userSpaceOnUse">
<stop stop-color="#56918B"/>
<stop offset="1" stop-color="#0B453F"/>
</linearGradient>
</defs>
</svg>
