<svg width="726" height="206" viewBox="0 0 726 206" fill="none" xmlns="http://www.w3.org/2000/svg">
<path d="M609.953 206C585.978 206 564.925 201.86 546.792 193.579C528.66 185.299 514.658 173.585 504.786 158.438C495.115 143.089 490.28 125.216 490.28 104.818V101.485C490.28 81.0872 495.115 63.3147 504.786 48.1677C514.658 32.8186 528.66 21.0039 546.792 12.7235C564.925 4.24118 585.978 0 609.953 0C632.115 0 651.96 3.63529 669.488 10.9059C687.217 18.1765 701.018 28.2745 710.89 41.2C720.963 54.1255 726 68.6667 726 84.8235V87.2471H679.763V84.8235C679.763 76.5431 676.74 69.1716 670.696 62.7088C664.854 56.2461 656.593 51.1971 645.916 47.5618C635.439 43.9265 623.351 42.1088 609.651 42.1088C585.676 42.1088 567.443 47.1578 554.952 57.2559C542.662 67.3539 536.517 81.8951 536.517 100.879V105.424C536.517 124.61 542.662 139.151 554.952 149.047C567.241 158.943 585.575 163.891 609.953 163.891C631.107 163.891 648.031 160.054 660.724 152.379C673.416 144.503 679.763 134.203 679.763 121.479V119.359H726V121.479C726 137.636 720.963 152.177 710.89 165.103C701.018 177.826 687.217 187.824 669.488 195.094C651.96 202.365 632.115 206 609.953 206Z" fill="#131313"/>
<path d="M348.494 3.63501C385.565 3.63501 413.569 11.9154 432.507 28.4762C451.647 44.835 461.217 69.1713 461.217 101.485V104.817C461.217 137.131 451.748 161.467 432.809 177.826C413.871 194.185 385.766 202.364 348.494 202.364H249.673V3.63501H348.494ZM348.494 161.467C371.26 161.467 387.982 156.923 398.66 147.835C409.54 138.747 414.979 124.61 414.979 105.423V101.182C414.979 82.1978 409.439 68.0605 398.358 58.7703C387.277 49.2781 370.555 44.5321 348.192 44.5321H295.004V161.467H348.494Z" fill="#131313"/>
<path d="M98.8211 3.63501C135.892 3.63501 163.896 11.9154 182.834 28.4762C201.974 44.835 211.544 69.1713 211.544 101.485V104.817C211.544 137.131 202.075 161.467 183.136 177.826C164.198 194.185 136.093 202.364 98.8211 202.364H0V3.63501H98.8211ZM98.8211 161.467C121.587 161.467 138.309 156.923 148.987 147.835C159.867 138.747 165.306 124.61 165.306 105.423V101.182C165.306 82.1978 159.766 68.0605 148.685 58.7703C137.604 49.2781 120.882 44.5321 98.5189 44.5321H45.3308V161.467H98.8211Z" fill="#131313"/>
</svg>
