<svg width="417" height="264" viewBox="0 0 417 264" fill="none" xmlns="http://www.w3.org/2000/svg">
<path d="M240.125 35.0868C244.532 32.5157 249.987 32.5692 254.342 35.2274L395.415 115.681C398.877 117.795 398.832 122.854 395.333 124.907L162.989 261.223C157.312 264.554 150.286 264.55 144.613 261.213L2.6453 182.916C-0.889215 180.837 -0.879871 175.705 2.66202 173.638L240.125 35.0868Z" fill="#002D29" fill-opacity="0.6"/>
<path d="M258.476 3.91955C263.097 1.01731 268.982 1.09336 273.528 4.11258L413.2 82.2676C415.341 86.5647 417.219 94.8672 408.512 102.162L182.457 237.586C176.854 240.804 169.971 240.8 164.372 237.575L22.6971 155.818C19.2987 150.571 18.5545 146.813 20.6952 142.515L258.476 3.91955Z" fill="url(#paint0_linear_77_473)"/>
<path d="M259.816 2.03545C264.349 -0.733261 270.055 -0.673405 274.528 2.19071L415.21 83.036C418.578 85.1933 413.966 97.5812 410.522 99.6145L184.187 233.844C178.523 237.187 171.053 238.768 165.373 235.453L22.705 153.887C16.2849 149.589 21.2492 140.759 24.715 138.642L259.816 2.03545Z" fill="url(#paint1_linear_77_473)"/>
<path d="M258.241 3.14948C262.662 0.535211 268.159 0.575938 272.541 3.25649L413.87 82.9307C419.22 86.0319 416.271 93.7983 409.851 97.5198L183.055 232.349C177.396 235.689 170.383 235.71 164.705 232.403L21.6656 150.729C16.0059 145.831 20.5173 141.285 24.0439 139.2L258.241 3.14948Z" fill="url(#paint2_linear_77_473)"/>
<path d="M93.1858 193.937V191.566L84.3266 186.507V188.821L93.1858 193.937Z" fill="#002C27"/>
<path d="M68.2513 179.538V177.328L66.6834 176.433V178.632L68.2513 179.538Z" fill="#002C27"/>
<path d="M64.2325 177.217V175.034L62.8928 174.269V176.444L64.2325 177.217Z" fill="#002C27"/>
<path d="M60.2136 174.896V172.739L58.874 171.974V174.123L60.2136 174.896Z" fill="#002C27"/>
<path d="M109.779 203.519V201.041L111.119 201.806V204.293L109.779 203.519Z" fill="#002C27"/>
<path d="M113.798 205.84V203.335L115.138 204.1V206.613L113.798 205.84Z" fill="#002C27"/>
<path d="M117.784 208.142V205.611L119.156 206.395V208.934L117.784 208.142Z" fill="#002C27"/>
<path d="M259.15 1.92994C263.557 -0.641138 269.011 -0.587683 273.366 2.07052L414.439 82.5239C417.901 84.6378 417.856 89.6971 414.358 91.7497L182.013 228.066C176.336 231.397 169.311 231.393 163.638 228.056L21.6697 149.759C18.1352 147.68 18.1445 142.548 21.6864 140.481L259.15 1.92994Z" fill="url(#paint3_linear_77_473)"/>
<path d="M273.367 2.07052C269.011 -0.587683 263.557 -0.641138 259.15 1.92994L171.467 53.0896L357.529 50.0683L273.367 2.07052Z" fill="#003530"/>
<ellipse cx="1.98959" cy="1.98941" rx="1.98959" ry="1.98941" transform="matrix(-1 0 0 1 35.8784 141.95)" fill="#E7C37C"/>
<ellipse cx="1.98959" cy="1.98941" rx="1.98959" ry="1.98941" transform="matrix(-1 0 0 1 39.8579 144.603)" fill="#E7C37C" fill-opacity="0.6"/>
<ellipse cx="1.98959" cy="1.98941" rx="1.98959" ry="1.98941" transform="matrix(-1 0 0 1 43.8369 147.255)" fill="#E7C37C" fill-opacity="0.2"/>
<defs>
<linearGradient id="paint0_linear_77_473" x1="287.326" y1="6.61472" x2="176.401" y2="240.475" gradientUnits="userSpaceOnUse">
<stop stop-color="#002D28"/>
<stop offset="0.951923" stop-color="#0C574F"/>
</linearGradient>
<linearGradient id="paint1_linear_77_473" x1="158.005" y1="314.366" x2="120.675" y2="140.012" gradientUnits="userSpaceOnUse">
<stop stop-color="#2BB0A2"/>
<stop offset="1" stop-color="#10786D"/>
</linearGradient>
<linearGradient id="paint2_linear_77_473" x1="171.753" y1="234.363" x2="285.894" y2="6.97075" gradientUnits="userSpaceOnUse">
<stop stop-color="#05695E"/>
<stop offset="1" stop-color="#0D7469"/>
</linearGradient>
<linearGradient id="paint3_linear_77_473" x1="416.808" y1="89.3348" x2="42.1954" y2="150.106" gradientUnits="userSpaceOnUse">
<stop stop-color="#22A295"/>
<stop offset="1" stop-color="#003F39"/>
</linearGradient>
</defs>
</svg>
