<svg width="40" height="40" viewBox="0 0 40 40" fill="none" xmlns="http://www.w3.org/2000/svg">
<path d="M5.14516 40C2.30357 40 0 37.7604 0 34.9978C0 32.2351 2.30357 29.9955 5.14516 29.9955C6.15194 29.9955 7.09118 30.2767 7.88436 30.7626L14.6196 24.2145C15.0661 23.7804 15.79 23.7804 16.2365 24.2145C16.6831 24.6486 16.6831 25.3524 16.2365 25.7865L9.50133 32.3346C10.0012 33.1058 10.2903 34.0189 10.2903 34.9978C10.2903 37.7604 7.98676 40 5.14516 40Z" fill="white"/>
<path d="M5.14516 0C2.30357 0 0 2.23957 0 5.00223C0 7.76489 2.30357 10.0045 5.14516 10.0045C6.15194 10.0045 7.09118 9.72333 7.88436 9.23742L14.6196 15.7855C15.0661 16.2196 15.79 16.2196 16.2365 15.7855C16.6831 15.3514 16.6831 14.6476 16.2365 14.2135L9.50133 7.66537C10.0012 6.89422 10.2903 5.98106 10.2903 5.00223C10.2903 2.23957 7.98676 0 5.14516 0Z" fill="white"/>
<path d="M34.8548 0C37.6964 0 40 2.23957 40 5.00223C40 7.76489 37.6964 10.0045 34.8548 10.0045C33.8481 10.0045 32.9088 9.72333 32.1156 9.23742L25.3804 15.7855C24.9339 16.2196 24.21 16.2196 23.7635 15.7855C23.3169 15.3514 23.3169 14.6476 23.7635 14.2135L30.4987 7.66537C29.9988 6.89422 29.7097 5.98106 29.7097 5.00223C29.7097 2.23957 32.0132 0 34.8548 0Z" fill="white"/>
<path d="M24.2857 20C24.2857 22.3012 22.3669 24.1667 20 24.1667C17.6331 24.1667 15.7143 22.3012 15.7143 20C15.7143 17.6988 17.6331 15.8333 20 15.8333C22.3669 15.8333 24.2857 17.6988 24.2857 20Z" fill="white"/>
<path d="M18.8571 7.5C18.8571 6.88635 19.3688 6.38889 20 6.38889C20.6312 6.38889 21.1429 6.88635 21.1429 7.5V13.3333C21.1429 13.947 20.6312 14.4444 20 14.4444C19.3688 14.4444 18.8571 13.947 18.8571 13.3333V7.5Z" fill="white"/>
<path d="M18.8571 26.6667C18.8571 26.053 19.3688 25.5556 20 25.5556C20.6312 25.5556 21.1429 26.053 21.1429 26.6667V32.5C21.1429 33.1137 20.6312 33.6111 20 33.6111C19.3688 33.6111 18.8571 33.1137 18.8571 32.5V26.6667Z" fill="white"/>
<path d="M26.8571 21.1111C26.226 21.1111 25.7143 20.6137 25.7143 20C25.7143 19.3864 26.226 18.8889 26.8571 18.8889H32.8571C33.4883 18.8889 34 19.3864 34 20C34 20.6137 33.4883 21.1111 32.8571 21.1111H26.8571Z" fill="white"/>
<path d="M7.14286 21.1111C6.51167 21.1111 6 20.6137 6 20C6 19.3864 6.51167 18.8889 7.14286 18.8889H13.1429C13.774 18.8889 14.2857 19.3864 14.2857 20C14.2857 20.6137 13.774 21.1111 13.1429 21.1111H7.14286Z" fill="white"/>
<path d="M40 34.9978C40 37.7604 37.6964 40 34.8548 40C32.0132 40 29.7097 37.7604 29.7097 34.9978C29.7097 34.0189 29.9988 33.1058 30.4987 32.3346L23.7635 25.7865C23.3169 25.3524 23.3169 24.6486 23.7635 24.2145C24.21 23.7804 24.9339 23.7804 25.3804 24.2145L32.1156 30.7626C32.9088 30.2767 33.8481 29.9955 34.8548 29.9955C37.6964 29.9955 40 32.2351 40 34.9978Z" fill="white"/>
</svg>
