<svg width="50" height="40" viewBox="0 0 50 40" fill="none" xmlns="http://www.w3.org/2000/svg">
<path d="M7.85995 2.10786L12.7495 28.7433H21.7176C21.9109 28.7433 22.0801 28.8738 22.1301 29.0615C22.3514 29.8917 22.3514 30.7659 22.1301 31.5961C22.0801 31.7837 21.9109 31.9142 21.7176 31.9142H9.96341L5.07381 5.1202H0L1.17658e-05 2.10786H7.85995Z" fill="white"/>
<path d="M33.4385 2.10786V5.1202H46.3722L41.877 28.7433H26.1407C25.9716 28.7433 25.8154 28.834 25.7309 28.9812L25.6398 29.1397C25.2172 29.8755 25.2172 30.7821 25.6398 31.5179L25.7309 31.6764C25.8154 31.8236 25.9716 31.9142 26.1407 31.9142H44.3218L50 2.10786H33.4385Z" fill="white"/>
<path d="M19.5584 36.3535C19.5584 38.3674 17.9342 40 15.9306 40C13.927 40 12.3028 38.3674 12.3028 36.3535C12.3028 34.3396 13.927 32.707 15.9306 32.707C17.9342 32.707 19.5584 34.3396 19.5584 36.3535Z" fill="white"/>
<path d="M41.9558 36.3535C41.9558 38.3674 40.3316 40 38.3281 40C36.3245 40 34.7003 38.3674 34.7003 36.3535C34.7003 34.3396 36.3245 32.707 38.3281 32.707C40.3316 32.707 41.9558 34.3396 41.9558 36.3535Z" fill="white"/>
<path d="M27.2082 0.39716C27.2082 0.063153 27.594 -0.121157 27.8516 0.0898249L31.2954 2.91034C31.4891 3.06895 31.4891 3.3664 31.2954 3.52501L27.8516 6.34552C27.594 6.5565 27.2082 6.37219 27.2082 6.03819V4.88239H13.0915C12.8737 4.88239 12.6972 4.70493 12.6972 4.48603V1.94932C12.6972 1.73041 12.8737 1.55296 13.0915 1.55296H27.2082V0.39716Z" fill="white"/>
<path d="M27.3659 25.4139C24.116 25.4139 21.2654 23.6957 19.664 21.1137C19.5721 20.9655 19.6246 20.7747 19.7703 20.6875L19.8006 20.6715L21.7666 19.7642C22.082 19.5863 22.8233 19.3575 23.265 19.8648C23.7066 20.3722 23.1918 20.9218 22.8791 21.1332C24.0341 22.2152 25.5837 22.8772 27.2871 22.8772C30.8586 22.8772 33.7539 19.9669 33.7539 16.3769C33.7539 15.9922 33.7207 15.6153 33.6569 15.2489C33.5626 14.7072 33.9455 14.1572 34.4927 14.1572H35.9353C36.0811 14.1572 36.2086 14.2576 36.2388 14.4009C36.3676 15.0128 36.4353 15.6472 36.4353 16.2976C36.4353 21.3324 32.3748 25.4139 27.3659 25.4139Z" fill="white"/>
<path d="M18.2965 16.2976C18.2965 11.2628 22.357 7.18128 27.3659 7.18128C30.4072 7.18128 33.0988 8.68603 34.7442 10.9952C34.8148 11.0943 34.8195 11.2259 34.7588 11.3315L34.274 12.1754C34.1947 12.3134 34.0525 12.4016 33.8958 12.4122L33.8642 12.4133H32.4131H31.5457C31.2303 12.4133 30.9205 12.4133 30.836 12.0962C30.7092 11.6205 31.3199 11.5677 31.5196 11.462C30.3853 10.4742 28.9056 9.87654 27.2871 9.87654C23.7155 9.87654 20.8202 12.7868 20.8202 16.3769C20.8202 16.8339 20.8671 17.2799 20.9564 17.7102C20.9787 17.818 20.9475 17.9303 20.8701 18.0081L20.2415 18.6402L20.2184 18.6618C20.108 18.7589 19.959 18.799 19.8151 18.7704L19.7845 18.7632L18.7274 18.4785C18.6156 18.4484 18.5286 18.3593 18.504 18.2456C18.3681 17.618 18.2965 16.9662 18.2965 16.2976Z" fill="white"/>
</svg>
