<svg width="44" height="40" viewBox="0 0 44 40" fill="none" xmlns="http://www.w3.org/2000/svg">
<path d="M28.8527 21.4702C28.9585 21.4051 29.0969 21.4228 29.1833 21.514L30.0542 22.4348C30.1649 22.5519 30.1458 22.7406 30.011 22.8319C29.6464 23.079 29.0841 23.4484 28.3446 23.8689C27.4231 24.3929 26.2582 25.0371 25.2189 26.7176C24.8628 27.2934 24.5972 27.9506 24.4235 28.5485C24.2492 29.1486 24.1705 29.6782 24.1808 29.9987L24.181 30.0007V39.7366C24.181 39.8821 24.0627 40 23.9167 40H22.7267C22.5808 40 22.4625 39.8821 22.4625 39.7366V30.0029C22.4625 29.0577 22.6676 27.7857 23.7357 25.9257C24.8118 24.0518 26.7554 22.8534 27.3556 22.5217C27.7882 22.2825 28.3894 21.8175 28.832 21.4844L28.8527 21.4702Z" fill="white"/>
<path fill-rule="evenodd" clip-rule="evenodd" d="M42.4144 14.6353C42.4144 15.3955 41.7933 16.0117 41.027 16.0117C40.2608 16.0117 39.6396 15.3955 39.6396 14.6353C39.6396 13.8752 40.2608 13.2589 41.027 13.2589C41.7933 13.2589 42.4144 13.8752 42.4144 14.6353ZM44 14.6353C44 15.9687 43.1081 17.095 41.8841 17.46C41.8654 20.1439 41.6698 21.6938 40.2871 23.5228C38.4932 25.8958 36.7625 26.6232 35.5644 27.0194C34.0352 27.5251 32.2437 27.6477 31.3153 27.6477C29.89 27.6477 28.8495 28.5135 28.2594 29.164C27.9023 29.5575 27.6084 30.2359 27.4039 30.9524C27.1998 31.6673 27.0877 32.4089 27.0879 32.9215V39.8034C27.0879 39.912 26.9991 40 26.8897 40H25.4354C25.3262 40 25.2373 39.9125 25.2372 39.8038V34.4289V34.4221C25.2372 32.9192 25.2372 31.333 25.9709 29.8772C26.5597 28.7092 27.1045 28.0143 27.7307 27.4466C28.1667 27.0513 28.643 26.7172 29.1972 26.3286C29.4345 26.1621 29.6861 25.9857 29.9549 25.7901C30.8767 25.1195 31.8502 23.9373 31.7447 22.1882C30.5047 21.8332 29.5976 20.699 29.5976 19.3543C29.5976 17.7254 30.9286 16.4049 32.5706 16.4049C34.2125 16.4049 35.5435 17.7254 35.5435 19.3543C35.5435 20.7368 34.5848 21.8968 33.291 22.2163C33.2618 23.0934 33.1238 23.7991 32.8304 24.5557C32.5893 25.1776 32.1339 25.7004 31.8036 26.039C32.669 26.0322 33.9749 25.9641 35.0591 25.5845C36.1737 25.1942 37.7463 24.4798 39.2556 22.3965C39.7737 21.6814 40.077 20.7762 40.243 19.8842C40.4047 19.0157 40.4354 18.164 40.41 17.5208C39.0642 17.239 38.0541 16.0544 38.0541 14.6353C38.0541 13.0064 39.3851 11.6859 41.027 11.6859C42.669 11.6859 44 13.0064 44 14.6353ZM32.5706 20.7307C33.3368 20.7307 33.958 20.1145 33.958 19.3543C33.958 18.5942 33.3368 17.9779 32.5706 17.9779C31.8043 17.9779 31.1832 18.5942 31.1832 19.3543C31.1832 20.1145 31.8043 20.7307 32.5706 20.7307Z" fill="white"/>
<path fill-rule="evenodd" clip-rule="evenodd" d="M1.58559 14.6353C1.58559 15.3955 2.20674 16.0117 2.97297 16.0117C3.73921 16.0117 4.36036 15.3955 4.36036 14.6353C4.36036 13.8752 3.73921 13.2589 2.97297 13.2589C2.20674 13.2589 1.58559 13.8752 1.58559 14.6353ZM0 14.6353C0 15.9687 0.891887 17.095 2.11592 17.46C2.13455 20.1439 2.33018 21.6938 3.71286 23.5228C5.50684 25.8958 7.23747 26.6232 8.43555 27.0194C9.96482 27.5251 11.7562 27.6477 12.6847 27.6477C14.11 27.6477 15.1505 28.5135 15.7406 29.164C16.0976 29.5575 16.3916 30.2359 16.5961 30.9524C16.8002 31.6673 16.9123 32.4089 16.9121 32.9215V39.8034C16.9121 39.912 17.0009 40 17.1103 40H18.5646C18.6738 40 18.7627 39.9125 18.7628 39.8038V34.4289V34.4221C18.7628 32.9192 18.7628 31.333 18.0291 29.8772C17.4403 28.7092 16.8955 28.0143 16.2693 27.4466C15.8333 27.0513 15.357 26.7172 14.8028 26.3286C14.5655 26.1621 14.3139 25.9857 14.0451 25.7901C13.1233 25.1195 12.1498 23.9373 12.2553 22.1882C13.4953 21.8332 14.4024 20.699 14.4024 19.3543C14.4024 17.7254 13.0714 16.4049 11.4294 16.4049C9.7875 16.4049 8.45646 17.7254 8.45646 19.3543C8.45646 20.7368 9.41524 21.8968 10.709 22.2163C10.7382 23.0934 10.8762 23.7991 11.1696 24.5557C11.4107 25.1776 11.8661 25.7004 12.1964 26.039C11.331 26.0322 10.0251 25.9641 8.94086 25.5845C7.82627 25.1942 6.25373 24.4798 4.74437 22.3965C4.22628 21.6814 3.92304 20.7762 3.75699 19.8842C3.59535 19.0157 3.56464 18.164 3.59002 17.5208C4.9358 17.239 5.94595 16.0544 5.94595 14.6353C5.94595 13.0064 4.6149 11.6859 2.97297 11.6859C1.33105 11.6859 0 13.0064 0 14.6353ZM11.4294 20.7307C10.6632 20.7307 10.042 20.1145 10.042 19.3543C10.042 18.5942 10.6632 17.9779 11.4294 17.9779C12.1957 17.9779 12.8168 18.5942 12.8168 19.3543C12.8168 20.1145 12.1957 20.7307 11.4294 20.7307Z" fill="white"/>
<path d="M15.1473 21.4702C15.0415 21.4051 14.9031 21.4228 14.8167 21.514L13.9458 22.4348C13.8351 22.5519 13.8542 22.7406 13.989 22.8319C14.3536 23.079 14.9159 23.4484 15.6554 23.8689C16.5769 24.3929 17.7418 25.0371 18.7811 26.7176C19.1372 27.2934 19.4028 27.9506 19.5765 28.5485C19.7508 29.1486 19.8295 29.6782 19.8191 29.9987L19.819 30.0007V39.7366C19.819 39.8821 19.9373 40 20.0833 40H21.2733C21.4192 40 21.5375 39.8821 21.5375 39.7366V30.0029C21.5375 29.0577 21.3324 27.7857 20.2643 25.9257C19.1882 24.0518 17.2446 22.8534 16.6444 22.5217C16.2118 22.2825 15.6106 21.8175 15.168 21.4844L15.1473 21.4702Z" fill="white"/>
<path d="M21.4715 18.534C22.5296 18.534 23.3874 17.6791 23.3874 16.6244C23.3874 16.2629 23.2866 15.9249 23.1115 15.6367L25.1712 13.0373C25.3578 13.1003 25.5578 13.1346 25.7658 13.1346C26.7874 13.1346 27.6156 12.3091 27.6156 11.2909C27.6156 10.2726 26.7874 9.44715 25.7658 9.44715C24.7441 9.44715 23.9159 10.2726 23.9159 11.2909C23.9159 11.5899 23.9873 11.8723 24.1141 12.122L22.0661 14.8086C21.8789 14.7478 21.679 14.7149 21.4715 14.7149C21.1664 14.7149 20.8779 14.786 20.6219 14.9124L18.8775 13.5296C18.8889 13.4655 18.8949 13.3995 18.8949 13.3321C18.8949 12.7139 18.3921 12.2127 17.7718 12.2127C17.1515 12.2127 16.6486 12.7139 16.6486 13.3321C16.6486 13.9503 17.1515 14.4515 17.7718 14.4515C17.9366 14.4515 18.0932 14.4161 18.2342 14.3525L19.8198 15.6561C19.6519 15.94 19.5556 16.271 19.5556 16.6244C19.5556 17.6791 20.4133 18.534 21.4715 18.534Z" fill="white"/>
<path d="M35.6757 9.6447C35.6757 12.8382 35.1796 15.1054 34.8749 16.0224C34.8128 16.2094 34.5907 16.2467 34.4551 16.1451C34.1492 15.9158 33.606 15.6262 33.0143 15.6225C32.8213 15.6212 32.6712 15.4215 32.7437 15.2329C32.9923 14.5869 33.1647 13.5041 33.2745 12.4163C33.3838 11.3326 33.4294 10.2602 33.4294 9.6447V7.10618C33.4294 6.82808 33.2541 6.57996 32.9914 6.48623L22.1566 2.62079C22.0126 2.56943 21.8552 2.56943 21.7113 2.62079L10.8764 6.48623C10.6137 6.57996 10.4384 6.82808 10.4384 7.10618V9.6447C10.4384 10.2602 10.4841 11.3326 10.5934 12.4163C10.7032 13.5041 10.8756 14.5869 11.1241 15.2329C11.1967 15.4215 11.0466 15.6212 10.8535 15.6225C10.2619 15.6262 9.71871 15.9158 9.41274 16.1451C9.27718 16.2467 9.05511 16.2094 8.99298 16.0224C8.68824 15.1054 8.19219 12.8382 8.19219 9.6447V5.46837C8.19219 5.19261 8.3646 4.94605 8.62418 4.85061L21.7053 0.0407C21.8528 -0.0135667 22.015 -0.0135667 22.1626 0.0407L35.2437 4.85061C35.5033 4.94605 35.6757 5.19261 35.6757 5.46837V9.6447Z" fill="white"/>
</svg>
