<svg width="34" height="40" viewBox="0 0 34 40" fill="none" xmlns="http://www.w3.org/2000/svg">
<path d="M15.6075 39.3023C15.6075 39.6876 15.9162 40 16.297 40H17.6761C18.057 40 18.3657 39.6876 18.3657 39.3023V24.186C18.3657 23.4154 17.7482 22.7907 16.9866 22.7907C16.2249 22.7907 15.6075 23.4154 15.6075 24.186V39.3023Z" fill="white"/>
<path d="M15.6075 0.697674C15.6075 0.312359 15.9162 0 16.297 0H17.6761C18.057 0 18.3657 0.312359 18.3657 0.697674V15.814C18.3657 16.5846 17.7482 17.2093 16.9866 17.2093C16.2249 17.2093 15.6075 16.5846 15.6075 15.814V0.697674Z" fill="white"/>
<path d="M32.276 30.6569C32.6058 30.8495 33.0275 30.7352 33.2179 30.4015L33.9075 29.1931C34.0979 28.8594 33.9849 28.4327 33.6551 28.2401L20.7164 20.6819C20.0568 20.2966 19.2133 20.5253 18.8325 21.1927C18.4517 21.86 18.6777 22.7134 19.3373 23.0987L32.276 30.6569Z" fill="white"/>
<path d="M1.724 30.6726C1.39419 30.8653 0.972468 30.751 0.782053 30.4173L0.092498 29.2089C-0.0979173 28.8752 0.0150835 28.4485 0.344892 28.2558L13.2836 20.6977C13.9432 20.3124 14.7867 20.541 15.1675 21.2084C15.5483 21.8758 15.3223 22.7292 14.6627 23.1145L1.724 30.6726Z" fill="white"/>
<path d="M32.276 9.43436C32.6058 9.2417 33.0275 9.35604 33.2179 9.68973L33.9075 10.8981C34.0979 11.2318 33.9849 11.6585 33.6551 11.8512L20.7164 19.4093C20.0568 19.7946 19.2133 19.566 18.8325 18.8986C18.4517 18.2312 18.6777 17.3778 19.3373 16.9925L32.276 9.43436Z" fill="white"/>
<path d="M1.724 9.4186C1.39419 9.22595 0.972468 9.34028 0.782053 9.67397L0.092498 10.8824C-0.0979173 11.2161 0.0150835 11.6428 0.344892 11.8354L13.2836 19.3936C13.9432 19.7789 14.7867 19.5502 15.1675 18.8828C15.5483 18.2154 15.3223 17.3621 14.6627 16.9767L1.724 9.4186Z" fill="white"/>
</svg>
