<svg width="55" height="71" viewBox="0 0 55 71" fill="none" xmlns="http://www.w3.org/2000/svg">
<path fill-rule="evenodd" clip-rule="evenodd" d="M8.61914 37.6607C8.61914 27.487 16.8884 19.2397 27.089 19.2397C37.2896 19.2397 45.5588 27.4871 45.5588 37.6608C45.5588 42.1633 43.3014 46.6666 40.4283 49.5321C36.8513 53.0996 36.5291 53.421 36.5291 56.9005V57.766C36.5291 58.8706 35.6337 59.766 34.5291 59.766L27.089 59.766H19.6488C18.5443 59.766 17.6488 58.8705 17.6488 57.766V56.9005C17.6488 53.4209 17.3266 53.0996 13.7497 49.532C10.8766 46.6665 8.61914 42.1632 8.61914 37.6607ZM27.089 23.7426C19.6085 23.7426 13.5444 29.7906 13.5444 37.2513C13.5444 41.0508 14.7068 44.212 17.2384 46.6665C17.3907 46.8155 17.5598 46.9789 17.7401 47.1531C18.9363 48.3089 20.6232 49.9387 21.1376 50.9648C21.6295 51.9459 21.7284 52.6658 21.7482 54.8988C21.7581 56.0033 22.6487 56.9005 23.7533 56.9005H27.089L30.4247 56.9005C31.5293 56.9005 32.4199 56.0033 32.4297 54.8988C32.4496 52.6658 32.5485 51.946 33.0404 50.9648C33.5548 49.9387 35.2416 48.3089 36.4379 47.1531C36.6181 46.979 36.7873 46.8156 36.9396 46.6666C39.4712 44.2121 40.6335 41.0509 40.6335 37.2514C40.6335 29.7907 34.5694 23.7426 27.089 23.7426Z" fill="white"/>
<path d="M36.1187 71V61.9941H20.1115C19.0854 61.9941 18.4697 62.4035 18.4697 63.4269C18.4697 64.4503 19.0854 64.8596 19.9063 64.8596C19.4958 65.269 19.2906 65.5146 19.2906 66.4971C19.2906 67.4795 19.9063 68.1345 21.1376 68.1345H23.6002C23.1898 68.5438 22.9846 68.9123 22.9846 69.5672C22.9846 70.2222 23.395 71 24.6263 71H36.1187Z" fill="#FFBB34"/>
<path d="M25.0369 2C25.0369 0.89543 25.9323 0 27.0369 0H27.9622C29.0667 0 29.9622 0.89543 29.9622 2V12.7368C29.9622 13.8414 29.0667 14.7368 27.9622 14.7368H27.0369C25.9323 14.7368 25.0369 13.8414 25.0369 12.7368V2Z" fill="white"/>
<path d="M1.15265 6.5073C0.516057 5.60463 0.733047 4.35863 1.63731 3.72429L2.39128 3.19538C3.29554 2.56103 4.54464 2.77856 5.18123 3.68124L13.6241 15.6531C14.2607 16.5558 14.0437 17.8018 13.1394 18.4362L12.3855 18.9651C11.4812 19.5994 10.2321 19.3819 9.59552 18.4792L1.15265 6.5073Z" fill="white"/>
<path d="M53.8474 6.5073C54.4839 5.60463 54.267 4.35863 53.3627 3.72429L52.6087 3.19538C51.7045 2.56103 50.4554 2.77856 49.8188 3.68124L41.3759 15.6531C40.7393 16.5558 40.9563 17.8018 41.8606 18.4362L42.6145 18.9651C43.5188 19.5994 44.7679 19.3819 45.4045 18.4792L53.8474 6.5073Z" fill="white"/>
</svg>
