<svg width="115" height="70" viewBox="0 0 115 70" fill="none" xmlns="http://www.w3.org/2000/svg">
<path fill-rule="evenodd" clip-rule="evenodd" d="M47.9168 14.1284C47.9168 21.9314 41.6239 28.2569 33.8612 28.2569C26.0986 28.2569 19.8057 21.9314 19.8057 14.1284C19.8057 6.32552 26.0986 0 33.8612 0C41.6239 0 47.9168 6.32552 47.9168 14.1284ZM33.8612 20.5505C37.3897 20.5505 40.2501 17.6752 40.2501 14.1284C40.2501 10.5817 37.3897 7.70642 33.8612 7.70642C30.3327 7.70642 27.4723 10.5817 27.4723 14.1284C27.4723 17.6752 30.3327 20.5505 33.8612 20.5505Z" fill="#FFBB34"/>
<path fill-rule="evenodd" clip-rule="evenodd" d="M95.1944 14.1284C95.1944 21.9314 88.9015 28.2569 81.1388 28.2569C73.3761 28.2569 67.0833 21.9314 67.0833 14.1284C67.0833 6.32552 73.3761 0 81.1388 0C88.9015 0 95.1944 6.32552 95.1944 14.1284ZM81.1388 20.5505C84.6673 20.5505 87.5277 17.6752 87.5277 14.1284C87.5277 10.5817 84.6673 7.70642 81.1388 7.70642C77.6103 7.70642 74.7499 10.5817 74.7499 14.1284C74.7499 17.6752 77.6103 20.5505 81.1388 20.5505Z" fill="white"/>
<path d="M33.8611 33.3945C15.1601 33.3945 0 49.0645 0 68.3945C0 69.2857 0.719915 70 1.6111 70H5.66667C6.77124 70 7.66002 69.1023 7.73103 68C8.69264 53.0725 20.31 40.4587 34.5 40.4587C41.3726 40.4587 47.6418 43.4176 52.3891 48.1651C52.9214 46.9884 54.5611 44.2494 56.8611 42.7074C50.822 36.9274 42.7407 33.3945 33.8611 33.3945Z" fill="white"/>
<path d="M66.1111 70H63.3333C62.2288 70 61.3401 69.1037 61.2804 68.0007C61.0775 64.2524 60.2845 60.819 58.7778 57.4771C58.9878 56.1927 61.3333 52.3395 63.25 50.9982C66.0953 56.1227 67.7222 62.0622 67.7222 68.3945C67.7222 69.2857 67.0023 70 66.1111 70Z" fill="white"/>
<path d="M81.1389 33.3945C62.438 33.3945 47.2778 49.0645 47.2778 68.3945C47.2778 69.2857 47.9977 70 48.8889 70H52.9445C54.0491 70 54.9379 69.1023 55.0089 68C55.9705 53.0725 67.5879 40.4587 81.7778 40.4587C95.9678 40.4587 107.585 53.0725 108.547 68C108.618 69.1023 109.507 70 110.611 70H113.389C114.28 70 115 69.2857 115 68.3945C115 49.0645 99.8399 33.3945 81.1389 33.3945Z" fill="#FFBB34"/>
</svg>
