<svg width="59" height="70" viewBox="0 0 59 70" fill="none" xmlns="http://www.w3.org/2000/svg">
<path fill-rule="evenodd" clip-rule="evenodd" d="M58.9963 10.4562C58.9966 11.0512 58.9972 11.6743 58.9979 12.3202C59.0026 16.6764 59.0084 22.0744 58.9064 26.9445C58.8479 29.7406 58.7534 32.3652 58.603 34.5201C58.4531 36.6675 58.2465 38.3694 57.9559 39.3071C56.5112 43.9684 54.6768 49.6772 49.6615 55.1814C46.2089 58.9706 42.3087 62.3186 38.7425 64.89C35.1806 67.4583 31.9368 69.2628 29.7965 69.9528C29.6013 70.0157 29.3987 70.0157 29.2035 69.9528C27.0632 69.2628 23.8194 67.4583 20.2575 64.89C16.6913 62.3186 12.7911 58.9706 9.3385 55.1814C4.32322 49.6772 2.48881 43.9684 1.04407 39.3071C0.753464 38.3694 0.546876 36.6675 0.396987 34.5201C0.246587 32.3652 0.152139 29.7406 0.0935914 26.9445C-0.00838129 22.0744 -0.00258664 16.6764 0.00208968 12.3202C0.00278308 11.6743 0.00345189 11.0512 0.00374113 10.4562C0.00395283 10.0206 0.287459 9.63992 0.705218 9.50126L29.1696 0.053342C29.3839 -0.0177806 29.6161 -0.0177807 29.8304 0.053342L58.2948 9.50126C58.7125 9.63992 58.996 10.0206 58.9963 10.4562ZM54.4595 16.0038C54.459 15.5008 54.4585 15.0145 54.4582 14.5482C54.458 14.1121 54.174 13.7289 53.7543 13.5909L29.8276 5.72256C29.615 5.65268 29.385 5.65268 29.1724 5.72256L5.24568 13.5909C4.82602 13.7289 4.54203 14.1121 4.54178 14.5482C4.54152 15.0145 4.54099 15.5009 4.54045 16.0039C4.5365 19.6698 4.5316 24.219 4.61914 28.3148C4.66892 30.6435 4.74839 32.8282 4.8754 34.6221C5.0019 36.4089 5.17663 37.8291 5.42256 38.6152C6.64366 42.5183 8.19532 47.3042 12.4389 51.9182C15.3489 55.082 18.6347 57.8783 21.6419 60.0294C24.6451 62.1775 27.3851 63.6926 29.2043 64.282C29.3982 64.3448 29.6018 64.3448 29.7957 64.282C31.6149 63.6927 34.3549 62.1775 37.3581 60.0294C40.3653 57.8783 43.6511 55.082 46.5611 51.9182C50.8047 47.3042 52.3563 42.5183 53.5774 38.6152C53.8234 37.8292 53.9981 36.4092 54.1246 34.6225C54.2516 32.8285 54.3311 30.6436 54.3809 28.3148C54.4684 24.2189 54.4635 19.6697 54.4595 16.0038Z" fill="white"/>
<path d="M41.5577 19.7886C42.3037 18.7553 43.776 18.5399 44.7968 19.3143L46.0668 20.2779C47.0299 21.0087 47.2344 22.3552 46.5301 23.3299L30.7 45.239C29.5888 46.7662 27.2946 46.8184 26.1136 45.3426L26.0426 45.254L16.6116 35.295C15.7197 34.3532 15.8227 32.8678 16.8364 32.0535L18.158 30.9917C19.0924 30.2411 20.462 30.3405 21.2741 31.2176L27.8634 38.3339C27.9521 38.4297 28.1083 38.4205 28.1846 38.3149L41.5577 19.7886Z" fill="#FFBB34"/>
</svg>
