<svg width="80" height="70" viewBox="0 0 80 70" fill="none" xmlns="http://www.w3.org/2000/svg">
<path d="M54.6684 6.41528L41.2327 0.32988C40.2067 -0.134811 39.021 -0.1073 38.0183 0.40446L24.4155 7.34703L39.869 15.3589L51.4253 9.77875C51.7733 9.6107 52.1794 9.86071 52.1794 10.243V23.6293C52.1794 24.9215 52.9651 25.7982 54.0128 25.7982C55.0605 25.7982 55.5844 24.9215 55.5844 23.6293V7.82459C55.5844 7.21857 55.2266 6.66809 54.6684 6.41528Z" fill="#FFBB34"/>
<path d="M24.4155 7.34702L39.869 15.3589V29.7546C39.869 30.1428 40.2864 30.3924 40.6351 30.2129L45.8932 27.506C47.2542 26.7306 48.3207 26.7306 48.7744 27.506C49.228 28.2813 49.2982 29.1951 47.7267 30.0904L40.8454 33.4854C40.2335 33.7873 39.5107 33.7754 38.9093 33.4536L25.5119 26.2836C24.8363 25.922 24.4155 25.2245 24.4155 24.4661V7.34702Z" fill="white"/>
<path d="M79.9999 42.5784L64.6128 35.0075C63.912 34.6627 63.0935 34.6517 62.3837 34.9774L48.5202 41.3406C48.1237 41.5226 48.1144 42.0829 48.5046 42.278L64.2908 50.1706L79.9999 42.5784Z" fill="#FFBB34"/>
<path d="M64.2909 50.1706L80 42.5784V60.8221C80 61.1966 79.7987 61.5422 79.473 61.7267L65.4676 69.6626C64.7301 70.0804 63.8353 70.112 63.0702 69.7472L48.4566 62.7781C47.7334 62.4332 47.2727 61.7029 47.2727 60.9011V57.385C47.2727 56.6039 48.1012 56.1018 48.793 56.4636L63.5308 64.1721C63.8766 64.353 64.2909 64.102 64.2909 63.7114V50.1706Z" fill="white"/>
<path d="M9.15527e-05 42.5784L15.3872 35.0075C16.088 34.6627 16.9065 34.6517 17.6163 34.9774L31.4798 41.3406C31.8763 41.5226 31.8856 42.0829 31.4954 42.278L15.7092 50.1706L9.15527e-05 42.5784Z" fill="#FFBB34"/>
<path d="M15.7091 50.1706L2.28882e-05 42.5784V60.8221C2.28882e-05 61.1966 0.20134 61.5422 0.527031 61.7267L14.5324 69.6626C15.2699 70.0804 16.1647 70.112 16.9298 69.7472L31.5434 62.7781C32.2666 62.4332 32.7273 61.7029 32.7273 60.9011V57.385C32.7273 56.6039 31.8988 56.1018 31.207 56.4636L16.4692 64.1721C16.1234 64.353 15.7091 64.102 15.7091 63.7114V50.1706Z" fill="white"/>
<path d="M50.4096 45.6389C50.83 45.6017 51.2024 45.6759 51.5435 45.8811C51.8785 46.0826 52.1644 46.3993 52.4357 46.8132C52.8406 47.4309 53.1538 48.181 52.8892 49.008C52.6287 49.8216 51.8346 50.6241 50.2558 51.427L50.2522 51.4291L50.2487 51.4306L40.9805 55.781C40.3584 56.073 39.6415 56.073 39.0194 55.781L29.7517 51.4306L29.7477 51.4291L29.7441 51.427C28.1653 50.6242 27.3712 49.8216 27.1107 49.008C26.8461 48.1811 27.1593 47.4309 27.5642 46.8132C27.8355 46.3993 28.1214 46.0826 28.4564 45.8811C28.7974 45.6759 29.17 45.6017 29.5903 45.6389C30.0035 45.6754 30.4632 45.8197 30.9897 46.0473C31.5172 46.2755 32.1269 46.5944 32.8427 46.9914L39.1408 50.422C39.6776 50.7145 40.3228 50.7145 40.8596 50.422L47.1567 46.9914C47.8727 46.5942 48.4825 46.2755 49.0102 46.0473C49.5367 45.8197 49.9964 45.6754 50.4096 45.6389Z" fill="white"/>
</svg>
