<svg width="84" height="60" viewBox="0 0 84 60" fill="none" xmlns="http://www.w3.org/2000/svg">
<path fill-rule="evenodd" clip-rule="evenodd" d="M1.43372 20.3282C0.953637 19.8345 1.10459 19.0146 1.72904 18.7242L41.5784 0.196031C41.8457 0.0717336 42.1543 0.0717325 42.4216 0.19603L82.271 18.7242C82.8954 19.0146 83.0464 19.8345 82.5663 20.3282L73.8613 29.2802C73.4751 29.6772 73.4853 30.3125 73.884 30.6971L82.9512 39.443C83.4566 39.9304 83.3154 40.7731 82.6789 41.0693L42.4219 59.8037C42.1544 59.9281 41.8456 59.9281 41.5781 59.8037L1.32108 41.0693C0.684553 40.7731 0.543445 39.9304 1.04876 39.443L10.116 30.6971C10.5147 30.3125 10.5249 29.6772 10.1387 29.2802L1.43372 20.3282ZM33.6452 8.18182C35.7029 6.80108 39.6869 5.31112 41.6954 4.64506C41.8942 4.57914 42.1058 4.57914 42.3046 4.64506C44.3131 5.31112 48.2971 6.80108 50.3548 8.18182C53.0645 10 60.9677 14.7727 64.129 16.5909C66.2919 17.8348 71.6916 19.6107 75.1873 20.6675C75.9077 20.8853 76.1484 21.7888 75.6274 22.3318L71.1353 27.0146C70.7563 27.4096 70.1348 27.4298 69.7281 27.0633C63.993 21.8948 51.5129 12.7273 42 12.7273C32.4871 12.7273 20.007 21.8948 14.2719 27.0633C13.8652 27.4298 13.2437 27.4096 12.8647 27.0146L8.37262 22.3318C7.85164 21.7888 8.09231 20.8853 8.81268 20.6675C12.3084 19.6107 17.7081 17.8348 19.871 16.5909C23.0323 14.7727 30.9355 10 33.6452 8.18182ZM16.8944 30.7733C16.4339 30.3713 16.4636 29.6535 16.9442 29.2757C28.9248 19.8566 37.3746 17.0455 42 17.0455C46.6254 17.0455 55.0752 19.8566 67.0558 29.2757C67.5364 29.6535 67.5661 30.3713 67.1056 30.7733C62.043 35.1922 51.1926 42.7273 42 42.7273C32.8073 42.7273 21.957 35.1922 16.8944 30.7733ZM42 46.8182C31.892 46.8182 19.1213 37.541 14.2223 33.1238C13.8344 32.774 13.2484 32.7696 12.8598 33.1188L8.46568 37.0676C7.90412 37.5722 8.08138 38.4941 8.78854 38.7585C11.7288 39.8581 15.9551 41.514 17.1613 42.2727C18.9677 43.4091 28.2258 48.1818 29.8064 49.3182C31.3871 50.4545 39.9677 55.2273 42 55.2273C44.0323 55.2273 52.6129 50.4545 54.1935 49.3182C55.7742 48.1818 65.0323 43.4091 66.8387 42.2727C68.0449 41.514 72.2712 39.8581 75.2115 38.7585C75.9186 38.4941 76.0959 37.5722 75.5343 37.0676L71.1401 33.1188C70.7516 32.7696 70.1656 32.774 69.7777 33.1238C64.8787 37.541 52.1079 46.8182 42 46.8182Z" fill="white"/>
<path d="M53.2904 30C53.2904 36.276 48.2355 41.3637 42 41.3637C35.7646 41.3637 30.7097 36.276 30.7097 30C30.7097 23.7241 35.7646 18.6364 42 18.6364C48.2355 18.6364 53.2904 23.7241 53.2904 30Z" fill="#FFBB34"/>
</svg>
