<svg width="397" height="230" viewBox="0 0 397 230" fill="none" xmlns="http://www.w3.org/2000/svg">
<path d="M235.22 1.88714C239.924 -0.663726 245.407 -0.680811 250.054 2.15525L393.277 85.032L393.292 85.0397L393.305 85.0475C395.141 86.1688 396.543 87.6579 396.551 89.5133C396.558 91.3846 395.149 92.8611 393.285 93.9545L393.277 93.9597L163.811 226.587C160.069 228.747 156.847 229.924 153.532 229.924C150.216 229.924 146.994 228.747 143.252 226.587H143.251L3.31599 145.684L3.30692 145.679C1.32553 144.514 0.00138553 142.845 8.6999e-07 140.884C-0.00123973 138.922 1.32443 137.256 3.3121 136.096L3.31599 136.094L234.767 2.14229L235.22 1.88714ZM248.672 4.41924C244.758 2.03053 240.116 2.09306 236.105 4.43349L236.1 4.43478L4.64757 138.386C3.09376 139.293 2.65233 140.235 2.65279 140.883C2.65337 141.534 3.10127 142.48 4.65404 143.393L144.577 224.29C148.13 226.341 150.879 227.271 153.532 227.271C156.018 227.271 158.588 226.453 161.827 224.661L162.485 224.29L391.942 91.6672L392.233 91.4898C393.616 90.612 393.899 89.9011 393.898 89.5237C393.896 89.105 393.548 88.304 391.923 87.3115V87.3102L248.699 4.43478L248.685 4.42701L248.672 4.41924Z" fill="#44E9D8"/>
</svg>
