<svg width="392" height="225" viewBox="0 0 392 225" fill="none" xmlns="http://www.w3.org/2000/svg">
<path d="M246.019 1.76642C242.105 -0.62229 237.464 -0.559762 233.452 1.78067L233.447 1.78196L1.99477 135.733C0.440968 136.64 -0.000457202 137.583 3.55248e-07 138.23C0.000575263 138.881 0.448481 139.827 2.00125 140.74L141.924 221.637C145.477 223.688 148.226 224.618 150.879 224.618C153.366 224.618 155.935 223.801 159.174 222.009L159.832 221.637L389.289 89.0144L389.581 88.837C390.963 87.9592 391.247 87.2482 391.245 86.8708C391.243 86.4522 390.895 85.6512 389.27 84.6587L246.046 1.78196L246.032 1.77419L246.019 1.76642Z" fill="#116F65" fill-opacity="0.7"/>
</svg>
